<?xml version="1.0" encoding="UTF-8"?>
<!DOCTYPE svg PUBLIC "-//W3C//DTD SVG 1.1//EN" "http://www.w3.org/Graphics/SVG/1.1/DTD/svg11.dtd">
<!-- Creator: CorelDRAW -->
<svg xmlns="http://www.w3.org/2000/svg" xml:space="preserve" width="1000px" height="268px" style="shape-rendering:geometricPrecision; text-rendering:geometricPrecision; image-rendering:optimizeQuality; fill-rule:evenodd; clip-rule:evenodd"
viewBox="0 0 2422.87 648.982"
 xmlns:xlink="http://www.w3.org/1999/xlink">
 <defs>
  <style type="text/css">
   <![CDATA[
    .fil0 {fill:none}
    .fil3 {fill:#1A3B86}
    .fil4 {fill:#7AA4BA}
    .fil2 {fill:#1F1A17;fill-rule:nonzero}
    .fil1 {fill:#7AA4BA;fill-rule:nonzero}
   ]]>
  </style>
 </defs>
 <g id="Слой_x0020_1">
  <metadata id="CorelCorpID_0Corel-Layer"/>
  <rect class="fil0" y="1.57929e-005" width="2422.87" height="648.982"/>
  <path class="fil1" d="M892.439 544.811c0,10.1163 -3.16098,18.1438 -9.48379,24.0816 -6.32282,5.93775 -14.982,8.90663 -25.9775,8.90663l-47.5029 0 0 -117.436 45.6883 0c10.6658,0 19.2428,2.88581 25.73,8.65915 6.48809,5.77248 9.73213,13.4426 9.73213,23.0086 0,11.8755 -5.27839,20.3979 -15.8343,25.5656 11.7656,5.49818 17.648,14.5701 17.648,27.2148zm-24.7409 -39.2548c3.40932,-2.96974 5.11311,-7.09294 5.11311,-12.3705 0,-5.27839 -1.70379,-9.40159 -5.11311,-12.3705 -3.40845,-2.96888 -8.08199,-4.45375 -14.0197,-4.45375l-26.3902 0 0 33.6476 26.3902 0c5.93775,0 10.6113,-1.48401 14.0197,-4.45288zm1.56708 51.3777c3.46383,-3.24318 5.19618,-7.61472 5.19618,-13.112 0,-5.49818 -1.73235,-9.84203 -5.19618,-13.0307 -3.46383,-3.18867 -8.16419,-4.78257 -14.1019,-4.78257l-27.8751 0 0 35.7918 27.8751 0c5.93775,0 10.6381,-1.62246 14.1019,-4.8665zm132.825 20.8652l-16.8233 0 0 -83.6244 16.8233 0 0 83.6244zm-35.874 -44.8637c5.00322,4.83881 7.50483,11.1062 7.50483,18.8032 0,7.69693 -2.50161,13.9652 -7.50483,18.8032 -5.00322,4.83794 -11.5735,7.25735 -19.71,7.25735l-38.7607 0 0 -83.6244 16.8233 0 0 31.5033 21.9373 0c8.1365,0 14.7068,2.41941 19.71,7.25735zm-12.7001 27.8751c2.36403,-2.19962 3.54604,-5.22301 3.54604,-9.0719 0,-3.84803 -1.18201,-6.8446 -3.54604,-8.98883 -2.36403,-2.14424 -5.63576,-3.21636 -9.81434,-3.21636l-19.1329 0 0 24.5757 19.1329 0c4.17858,0 7.45031,-1.09981 9.81434,-3.29856zm99.6724 2.8036c5.27752,0 9.40159,-1.64928 12.3705,-4.94784 3.51835,-4.17858 5.27752,-11.6012 5.27752,-22.267 0,-11.1054 -1.70379,-18.5834 -5.11311,-22.4314 -3.18867,-3.51921 -7.36724,-5.27839 -12.5349,-5.27839 -5.38828,0 -9.62138,1.75917 -12.7001,5.27839 -3.739,4.28847 -5.60807,11.6557 -5.60807,22.1017 0,10.5559 1.97896,18.0884 5.93775,22.5967 3.18867,3.29856 7.31186,4.94784 12.3705,4.94784zm0.164409 15.1749c-7.0367,0 -13.1951,-1.48487 -18.4726,-4.45375 -5.27839,-2.96888 -9.1818,-7.25735 -11.7111,-12.8654 -3.29856,-7.03756 -4.94784,-19.3526 -4.94784,-36.9461 0,-18.2537 0.76926,-30.7886 2.30865,-37.6063 1.53939,-6.81691 4.9487,-12.4804 10.2262,-16.9886 3.40932,-2.96888 7.88989,-5.22301 13.4426,-6.76239 5.55356,-1.53939 10.6667,-2.47392 15.3393,-2.8036 4.67354,-0.330548 11.7933,-0.660231 21.3602,-0.989914l0 14.8444c-1.64928,0.109894 -4.61816,0.275168 -8.90663,0.494957 -4.28847,0.219789 -7.80769,0.439577 -10.5568,0.659366 -2.74822,0.219789 -5.88237,0.770125 -9.40072,1.64928 -3.51921,0.88002 -6.3782,2.08972 -8.57695,3.62911 -3.8489,2.5293 -6.48809,5.69027 -7.91758,9.48379 -1.42949,3.79352 -2.14424,8.82443 -2.14424,15.0919 1.75917,-3.29856 4.75574,-5.93775 8.9897,-7.91672 4.23309,-1.97896 8.87894,-2.96888 13.9367,-2.96888 8.57695,0 15.3947,2.36403 20.4525,7.09208 7.25735,6.81777 10.8865,18.2537 10.8865,34.3078 0,15.5037 -3.40845,26.7199 -10.2262,33.6476 -6.04765,6.26744 -14.0751,9.40159 -24.0816,9.40159zm117.075 -0.989914l-16.8242 0 0 -57.5638 -35.7918 57.5638 -16.8233 0 0 -83.6244 16.8233 0 0 56.7392 35.7918 -56.7392 16.8242 0 0 83.6244zm86.0645 -41.8948c0,17.2638 -3.13415,29.0848 -9.40159,35.4621 -4.94784,4.94784 -11.7102,7.42262 -20.2872,7.42262 -9.34707,0 -16.6589,-3.18953 -21.9373,-9.56686l0 42.3898 -16.8233 0 0 -117.437 16.4937 0 0 8.90663c5.49818,-6.59712 12.8654,-9.89568 22.1017,-9.89568 8.68684,0 15.5046,2.47392 20.4525,7.42176 6.26744,6.37733 9.40159,18.1438 9.40159,35.2968zm-17.4014 10.7212c0.385063,-2.96888 0.578027,-6.5426 0.578027,-10.7212 0,-4.17858 -0.192964,-7.75231 -0.578027,-10.7212 -0.384197,-2.96888 -1.15432,-5.82786 -2.30865,-8.57608 -1.15432,-2.74909 -2.94119,-4.83881 -5.36059,-6.2683 -2.41941,-1.42949 -5.4428,-2.14424 -9.0719,-2.14424 -3.73814,0 -6.81777,0.714746 -9.23631,2.14424 -2.41941,1.42949 -4.20627,3.51921 -5.36059,6.2683 -1.15432,2.74822 -1.92445,5.6072 -2.30951,8.57608 -0.384197,2.96888 -0.577161,6.5426 -0.577161,10.7212 0,4.17858 0.192964,7.75231 0.577161,10.7212 0.385063,2.96888 1.15519,5.85555 2.30951,8.65915 1.15432,2.80447 2.96888,4.92101 5.4428,6.35051 2.47392,1.42949 5.52587,2.14424 9.15411,2.14424 3.62911,0 6.6525,-0.714746 9.0719,-2.14424 2.41941,-1.42949 4.20627,-3.54604 5.36059,-6.35051 1.15432,-2.8036 1.92445,-5.69027 2.30865,-8.65915zm92.5803 31.1736l-16.4937 0 0 -7.58703c-3.07877,3.07877 -6.29513,5.27752 -9.64907,6.59712 -3.35394,1.3196 -7.55934,1.97983 -12.6179,1.97983 -9.89654,0 -17.3737,-2.5293 -22.4314,-7.5879 -4.39837,-4.61816 -6.59798,-10.6104 -6.59798,-17.9777 0,-7.25735 2.50161,-13.0852 7.50483,-17.4836 5.00322,-4.39837 12.1784,-6.59798 21.5246,-6.59798l21.9373 0 0 -5.93775c0,-5.38828 -1.42949,-9.34621 -4.28847,-11.8755 -2.85898,-2.5293 -7.53252,-3.79352 -14.0197,-3.79352 -4.39837,0 -7.94441,0.632541 -10.639,1.89676 -2.69371,1.26422 -5.2507,3.38076 -7.66924,6.35051l-10.8865 -10.3915c3.8489,-4.50826 7.99979,-7.6701 12.4535,-9.48379 4.45288,-1.81455 10.2531,-2.7214 17.4005,-2.7214 22.9818,0 34.4722,9.566 34.4722,28.6989l0 55.9146zm-16.8233 -30.1837l0 -6.76239 -19.2981 0c-10.2262,0 -15.3393,4.0133 -15.3393,12.0399 0,7.91758 5.27839,11.8764 15.8343,11.8764 6.70701,0 11.7656,-1.59477 15.1741,-4.78343 2.41941,-2.30951 3.62911,-6.43271 3.62911,-12.3705zm91.0132 -38.7607l-25.5656 0 0 68.9444 -16.8242 0 0 -68.9444 -26.5546 0 0 -14.68 68.9444 0 0 14.68zm64.5408 23.9985c5.00322,4.78343 7.50483,11.0786 7.50483,18.8854 0,7.80682 -2.50161,14.1028 -7.50483,18.8854 -5.00322,4.78343 -11.5181,7.17515 -19.5456,7.17515l-38.9251 0 0 -83.6244 16.8233 0 0 31.5033 22.1017 0c8.02748,0 14.5424,2.39172 19.5456,7.17515zm-12.6179 27.9573c2.30951,-2.19962 3.46383,-5.22301 3.46383,-9.0719 0,-3.84803 -1.15432,-6.8446 -3.46383,-8.98883 -2.30951,-2.14424 -5.55269,-3.21636 -9.73127,-3.21636l-19.2981 0 0 24.5757 19.2981 0c4.17858,0 7.42176,-1.09981 9.73127,-3.29856z"/>
  <polygon class="fil1" points="1591.13,509.069 1565.56,509.069 1565.56,578.014 1548.74,578.014 1548.74,509.069 1522.18,509.069 1522.18,494.389 1591.13,494.389 "/>
  <path class="fil1" d="M1672.47 494.392l-36.9461 100.283c-3.95879,10.9955 -11.7102,16.4937 -23.2561,16.4937l-6.76239 0 0 -15.1741 4.28761 0c3.51921,0 6.10303,-0.577161 7.75231,-1.73235 1.64928,-1.15432 3.07877,-3.49066 4.28847,-7.00987l4.61816 -13.1951 -29.3591 -79.6656 17.9785 0 19.9575 59.0487 19.4634 -59.0487 17.9777 0z"/>
  <path class="fil1" d="M1746.33 536.121c0,17.2638 -3.13415,29.0848 -9.40159,35.4621 -4.94784,4.94784 -11.7102,7.42262 -20.2872,7.42262 -9.34707,0 -16.6589,-3.18953 -21.9373,-9.56686l0 42.3898 -16.8233 0 0 -117.437 16.4937 0 0 8.90663c5.49818,-6.59712 12.8654,-9.89568 22.1017,-9.89568 8.68684,0 15.5046,2.47392 20.4525,7.42176 6.26744,6.37733 9.40159,18.1438 9.40159,35.2968zm-17.4014 10.7212c0.385063,-2.96888 0.578027,-6.5426 0.578027,-10.7212 0,-4.17858 -0.192964,-7.75231 -0.578027,-10.7212 -0.384197,-2.96888 -1.15432,-5.82786 -2.30865,-8.57608 -1.15432,-2.74909 -2.94119,-4.83881 -5.36059,-6.2683 -2.41941,-1.42949 -5.4428,-2.14424 -9.0719,-2.14424 -3.73814,0 -6.81777,0.714746 -9.23631,2.14424 -2.41941,1.42949 -4.20627,3.51921 -5.36059,6.2683 -1.15432,2.74822 -1.92445,5.6072 -2.30951,8.57608 -0.384197,2.96888 -0.577161,6.5426 -0.577161,10.7212 0,4.17858 0.192964,7.75231 0.577161,10.7212 0.385063,2.96888 1.15519,5.85555 2.30951,8.65915 1.15432,2.80447 2.96888,4.92101 5.4428,6.35051 2.47392,1.42949 5.52587,2.14424 9.15411,2.14424 3.62911,0 6.6525,-0.714746 9.0719,-2.14424 2.41941,-1.42949 4.20627,-3.54604 5.36059,-6.35051 1.15432,-2.8036 1.92445,-5.69027 2.30865,-8.65915z"/>
  <path class="fil1" d="M1864.65 577.799l-16.8242 0 0 -68.9444 -24.246 0 0 24.246c0,8.68684 -0.604851,15.9987 -1.81455,21.9365 -1.2097,5.93775 -3.02339,10.5291 -5.4428,13.7731 -2.41941,3.24318 -5.19532,5.55269 -8.32947,6.9268 -3.13415,1.37498 -6.8446,2.06203 -11.1331,2.06203l-7.91758 0 0 -14.8444 2.63919 0c1.75917,0 3.24404,-0.137584 4.45375,-0.412753 1.20884,-0.274303 2.6115,-1.04443 4.2054,-2.30865 1.59477,-1.26508 2.85898,-3.02426 3.79352,-5.27839 0.934534,-2.25413 1.73235,-5.60807 2.39172,-10.061 0.660231,-4.45375 0.989914,-9.75896 0.989914,-15.9165l0 -34.8027 57.2342 0 0 83.6244zm84.4153 -36.9461l-54.2644 0c0,7.36724 1.84138,13.112 5.525,17.2361 3.68362,4.1232 8.93432,6.18523 15.7521,6.18523 4.50826,0 8.2464,-0.660231 11.2153,-1.97983 2.96888,-1.3196 5.99313,-3.51835 9.0719,-6.59712l10.7212 10.061c-4.50826,4.50826 -9.09959,7.80769 -13.7723,9.89654 -4.67354,2.08886 -10.5291,3.13415 -17.5666,3.13415 -11.4351,0 -20.5623,-3.40932 -27.3793,-10.2262 -6.81777,-6.81777 -10.2262,-17.7034 -10.2262,-32.6585 0,-13.4149 3.18867,-23.8886 9.566,-31.4202 6.3782,-7.53252 15.0097,-11.2983 25.8961,-11.2983 11.1054,0 19.7922,3.68362 26.0597,11.0509 6.2683,7.36724 9.40159,17.2084 9.40159,29.5235l0 7.09294zm-16.6589 -11.7111c-0.329683,-4.94784 -1.09894,-8.74136 -2.30865,-11.3805 -3.18867,-7.03756 -8.68684,-10.5559 -16.4937,-10.5559 -7.91758,0 -13.4703,3.51835 -16.6589,10.5559 -1.3196,2.85898 -2.03434,6.6525 -2.14424,11.3805l37.6055 0zm84.7458 -20.2872l-37.4411 0 0 68.9444 -16.8242 0 0 -83.6244 54.2653 0 0 14.68zm23.5529 68.9444l-16.9886 0 0 -83.6244 16.9886 0 0 83.6244zm54.595 0l-20.6177 0 -33.812 -43.5441 31.833 -40.0803 20.1228 0 -33.3179 39.2556 35.7918 44.3687zm70.0658 -41.8948c0,7.69779 -0.714746,14.1296 -2.14424,19.2981 -1.42949,5.16849 -4.0133,9.73127 -7.75231,13.6901 -6.37733,6.59712 -14.7345,9.89654 -25.0706,9.89654 -10.2262,0 -18.528,-3.29942 -24.9053,-9.89654 -3.739,-3.95879 -6.32282,-8.52157 -7.75231,-13.6901 -1.42949,-5.16849 -2.14424,-11.6003 -2.14424,-19.2981 0,-7.58703 0.714746,-13.9921 2.14424,-19.2151 1.42949,-5.22301 4.0133,-9.75896 7.75231,-13.6079 6.37733,-6.59712 14.6791,-9.89568 24.9053,-9.89568 10.3361,0 18.6933,3.29856 25.0706,9.89568 3.739,3.8489 6.32282,8.38485 7.75231,13.6079 1.42949,5.22301 2.14424,11.628 2.14424,19.2151zm-22.5967 22.9272c3.8489,-3.8489 5.77334,-11.4913 5.77334,-22.9272 0,-11.4359 -1.92445,-19.0775 -5.77334,-22.9264 -3.18867,-3.18867 -7.31186,-4.78343 -12.3705,-4.78343 -4.94784,0 -9.01652,1.59477 -12.2052,4.78343 -3.8489,3.8489 -5.77334,11.4904 -5.77334,22.9264 0,11.4359 1.92445,19.0783 5.77334,22.9272 3.29856,3.29856 7.36724,4.94784 12.2052,4.94784 4.9487,0 9.0719,-1.64928 12.3705,-4.94784zm63.3034 -98.4687l-3.62824 82.4692 -13.1951 0 -3.62911 -82.4692 20.4525 0zm-0.989049 117.436l-18.4735 0 0 -17.9785 18.4735 0 0 17.9785z"/>
  <path class="fil2" d="M961.865 174.148l-84.5849 255.189 -37.2749 0 -84.2266 -255.189 51.6114 0 51.2523 166.303 51.2531 -166.303 51.9696 0zm201.191 22.9385c15.1723,15.2917 22.7585,34.1685 22.7585,56.6293 0,22.46 -7.58617,41.3367 -22.7585,56.6284 -15.1732,15.2926 -35.662,22.9385 -61.4681,22.9385l-49.102 0 0 96.0545 -49.8193 0 0 -255.189 98.9213 0c25.8061,0 46.2949,7.64587 61.4681,22.9385zm-37.0958 81.8972c6.69057,-6.33233 10.035,-14.7553 10.035,-25.2679 0,-10.5135 -3.34442,-18.9961 -10.035,-25.4479 -6.69057,-6.45088 -15.6509,-9.67676 -26.8808,-9.67676l-46.5934 0 0 69.8902 46.5934 0c11.23,0 20.1903,-3.16617 26.8808,-9.49764zm275.919 -60.3925l-66.6652 0 0 210.746 -49.8193 0 0 -210.746 -66.6643 0 0 -44.4432 183.149 0 0 44.4432zm156.21 210.746l-46.5934 0 0 -205.012 -51.9696 45.1596 0 -50.1776 51.9696 -45.1596 46.5934 0 0 255.189zm146.891 0l-53.4034 0 0 -53.0452 53.4034 0 0 53.0452zm257.282 0l-57.704 0 -49.8193 -101.789 -35.8411 0 0 101.789 -49.8193 0 0 -255.189 99.9969 0c25.3276,0 45.4582,7.52646 60.3925,22.5802 14.9335,15.0529 22.4003,33.5705 22.4003,55.5537 0,16.9644 -4.42,31.1814 -13.2609,42.6511 -8.84087,11.4688 -19.9514,19.5932 -33.3326,24.3714l56.9875 110.033zm-70.2484 -152.684c6.68971,-6.21206 10.035,-14.3364 10.035,-24.3714 0,-10.0359 -3.34529,-18.1594 -10.035,-24.3723 -6.69057,-6.21206 -15.412,-9.31852 -26.1644,-9.31852l-46.9517 0 0 67.3816 46.9517 0c10.7523,0 19.4738,-3.10646 26.1644,-9.31938zm305.309 65.2313c0,26.5226 -8.96028,48.087 -26.8808,64.6931 -17.9206,16.607 -40.262,24.9097 -67.0234,24.9097 -26.7614,0 -49.102,-8.30264 -67.0225,-24.9097 -17.9214,-16.6062 -26.8817,-38.1705 -26.8817,-64.6931l0 -167.737 49.8193 0 0 165.945c0,14.5753 3.94321,26.0449 11.8279,34.4073 7.8847,8.36322 18.637,12.5444 32.257,12.5444 13.62,0 24.432,-4.18118 32.4361,-12.5444 8.00498,-8.36235 12.007,-19.832 12.007,-34.4073l0 -165.945 49.4611 0 0 167.737z"/>
  <path class="fil3" d="M361.298 548.741c17.0241,3.77015 34.7119,5.77421 52.8687,5.77421 111.666,0 205.799,-75.1772 234.56,-177.667 -18.2857,134.305 -133.446,237.846 -272.76,237.846 -12.7581,0 -25.306,-0.887807 -37.6038,-2.5691l22.929 -63.3666 0.00605717 -0.0173062z"/>
  <path class="fil4" d="M375.967 64.0753c14.5138,0 28.7603,1.13096 42.6684,3.29596 -1.48833,-0.0268246 -2.97407,-0.0562451 -4.46846,-0.0562451 -134.514,0 -243.599,109.085 -243.599,243.601 0,51.2557 15.8533,98.8071 42.902,138.051l-0.0121143 0.0155756 -46.8176 69.1858c-41.129,-48.1077 -65.9824,-110.544 -65.9824,-178.782 0,-152.024 123.287,-275.31 275.309,-275.31z"/>
  <path class="fil4" d="M587.709 189.427c23.61,34.6167 37.4186,76.4518 37.4186,121.506 0,99.4872 -67.3107,183.269 -158.861,208.319 79.7158,-28.4098 136.799,-104.548 136.799,-194.006 0,-42.4798 -12.8715,-81.9586 -34.9265,-114.749l0.00346124 -0.00346124 19.5664 -21.0668z"/>
  <path class="fil3" d="M409.155 94.9634c41.6283,0 80.4989,11.7933 113.478,32.2051l-23.9734 18.8897 -0.00778778 0.00692248c-29.9596,-17.012 -64.5945,-26.7337 -101.503,-26.7337 -101.939,0 -186.585,74.1155 -203.015,171.388 10.1959,-109.781 102.579,-195.755 215.02,-195.755z"/>
  <path class="fil4" d="M154.012 411.391l28.4332 -25.1684c63.807,-65.7601 153.744,-131.962 265.33,-198.533 -107.388,87.6922 -196.483,205.438 -281.136,330.478l-12.6275 -106.777z"/>
  <path class="fil3" d="M162.493 602.381c115.358,-169.031 235.885,-326.208 424.494,-476.091 -122.19,167.176 -224.319,300.917 -299.092,516.118 -41.8498,-20.8868 -77.8952,-31.2654 -125.402,-40.0275z"/>
  <path class="fil3" d="M338.363 612.125c39.8025,-132.028 104.72,-251.918 193.11,-360.464 -42.9574,84.5918 -76.778,188.896 -104.348,306.688l-88.7626 53.7755z"/>
  <path class="fil4" d="M616.804 148.414l-12.4501 -30.6709 -28.242 -20.0423 9.71742 -8.50253 27.9382 9.4137 51.1363 -42.7939 -80.0178 -39.5542 11.6696 -9.09267 100.628 25.0048 28.4912 -23.0354c14.8851,-10.2115 24.8283,5.17888 14.0933,14.397l-30.4606 25.9152 -1.36373 101.233 -13.7913 11.063 -20.2586 -87.4309 -50.2113 34.2377 4.78343 33.3421 -11.6618 6.51578z"/>
 </g>
</svg>
